<?xml version="1.0" standalone="no"?>
<!DOCTYPE svg PUBLIC "-//W3C//DTD SVG 20010904//EN"
 "http://www.w3.org/TR/2001/REC-SVG-20010904/DTD/svg10.dtd">
<svg version="1.0" xmlns="http://www.w3.org/2000/svg"
 width="1273.000000pt" height="315.000000pt" viewBox="0 0 1273.000000 315.000000"
 preserveAspectRatio="xMidYMid meet">

<g transform="translate(0.000000,315.000000) scale(0.100000,-0.100000)"
fill="#e50914" stroke="none">
<path d="M8619 3030 c-234 -49 -387 -197 -434 -419 -21 -103 -22 -1510 -1
-1623 51 -263 218 -431 491 -489 137 -29 345 -24 450 12 182 61 296 197 341
409 9 45 14 137 14 297 l0 231 -62 6 c-35 3 -128 7 -208 8 l-145 3 -5 -235
c-5 -220 -6 -238 -28 -277 -33 -63 -86 -88 -184 -86 -122 2 -185 41 -219 138
-12 33 -14 171 -14 790 l0 751 25 49 c36 70 96 100 201 99 96 -1 152 -28 189
-94 24 -43 25 -54 28 -226 l4 -181 96 -6 c53 -4 148 -7 210 -7 l112 0 0 183
c0 203 -14 283 -67 394 -39 81 -140 180 -226 222 -142 69 -383 90 -568 51z"/>
<path d="M11800 3036 c-196 -42 -321 -136 -400 -301 -56 -117 -65 -167 -65
-350 0 -190 12 -243 85 -390 70 -142 125 -210 375 -465 299 -304 359 -397 386
-586 11 -84 0 -194 -26 -244 -31 -61 -103 -93 -184 -84 -74 9 -129 34 -166 75
-51 56 -65 118 -65 280 0 76 -4 140 -9 144 -9 5 -329 35 -383 35 l-28 0 0
-157 c0 -199 20 -299 86 -433 39 -79 60 -108 128 -175 120 -117 239 -172 436
-200 426 -61 660 177 660 671 0 200 -41 354 -139 526 -65 114 -133 194 -360
423 -208 211 -272 290 -317 391 -66 149 -47 365 37 424 44 32 130 45 195 31
111 -25 151 -92 161 -272 l6 -106 120 -7 c66 -3 160 -6 209 -6 l88 0 0 78 c0
104 -24 254 -53 334 -64 177 -168 280 -347 341 -75 27 -101 30 -225 33 -93 2
-162 -1 -205 -10z"/>
<path d="M3833 3023 l-673 -3 0 -175 0 -175 230 0 230 0 0 -1091 0 -1091 53 6
c28 3 113 8 187 11 74 3 150 8 168 11 l32 5 0 1073 0 1073 38 7 c20 3 124 6
230 6 l192 0 0 175 c0 96 -3 174 -7 173 -5 -2 -311 -4 -680 -5z"/>
<path d="M4717 3023 c-4 -3 -7 -561 -7 -1240 l0 -1233 73 0 c41 0 142 3 225 7
l152 6 0 523 0 524 280 2 281 3 2 173 2 172 -282 0 -283 0 0 360 0 360 360 0
360 0 0 175 0 175 -578 0 c-318 0 -582 -3 -585 -7z"/>
<path d="M6090 1805 l0 -1225 263 0 c144 0 407 -3 585 -7 l322 -6 -2 184 -3
184 -362 3 -363 2 0 1045 0 1045 -220 0 -220 0 0 -1225z"/>
<path d="M7447 3024 c-4 -4 -7 -558 -7 -1231 0 -970 3 -1224 13 -1227 6 -3
108 -7 225 -10 l212 -5 -2 1237 -3 1237 -216 3 c-118 1 -218 -1 -222 -4z"/>
<path d="M100 1575 c0 -1149 3 -1445 13 -1445 6 0 93 11 191 25 99 14 183 25
188 25 4 0 8 467 9 1038 0 662 4 1030 10 1017 10 -22 308 -1117 444 -1635 49
-184 91 -338 94 -341 3 -3 105 6 226 20 l220 27 3 1357 2 1357 -195 0 -195 0
0 -807 c0 -443 -2 -804 -5 -802 -2 3 -97 342 -210 754 -113 413 -212 774 -221
803 l-15 52 -279 0 -280 0 0 -1445z"/>
<path d="M1818 1683 l2 -1338 38 2 c20 1 156 14 302 28 146 13 397 36 559 50
162 14 296 27 298 29 2 2 2 88 1 192 l-3 189 -315 -21 c-173 -12 -343 -25
-377 -28 l-63 -7 0 390 0 390 33 5 c28 4 488 26 545 26 l22 0 0 186 0 187
-137 -7 c-76 -3 -211 -9 -300 -12 l-163 -7 0 362 0 361 378 2 377 3 3 178 2
177 -602 0 -603 0 3 -1337z"/>
<path d="M9752 1733 l3 -1288 150 -12 c83 -6 180 -14 218 -18 l67 -6 0 413 0
413 61 105 c33 58 64 109 69 113 9 10 113 -249 301 -748 109 -289 131 -341
151 -347 25 -8 429 -51 433 -46 7 8 -375 991 -556 1430 l-52 127 231 433 c126
238 264 497 305 576 l75 142 -223 0 -223 0 -255 -497 c-141 -274 -269 -523
-286 -553 l-31 -55 0 553 0 552 -220 0 -220 0 2 -1287z"/>
</g>
</svg>
